<?xml version="1.0" encoding="utf-8"?>
<!-- Generator: Adobe Illustrator 18.0.0, SVG Export Plug-In . SVG Version: 6.00 Build 0)  -->
<!DOCTYPE svg PUBLIC "-//W3C//DTD SVG 1.1//EN" "http://www.w3.org/Graphics/SVG/1.1/DTD/svg11.dtd">
<svg version="1.1" id="Layer_1" xmlns="http://www.w3.org/2000/svg" xmlns:xlink="http://www.w3.org/1999/xlink" x="0px" y="0px"
	 width="237.6px" height="210.7px" viewBox="0 0 237.6 210.7" enable-background="new 0 0 237.6 210.7" xml:space="preserve">
<g>
	<g>
		<path id="SVGID_1_" fill="#3B5998" d="M92.3,77.4c0.4-13.8,1.5-28.9,4.3-33.6c5.6-9.1,14.7-14.4,25.1-14.6c0.4,0,0.7,0,1.1,0
			c10.6,0.1,19.8,5.3,25.4,14.3c3.1,5,4.2,19.8,4.5,33.9c-9.1-4.3-19.4-6.7-30.2-6.7C111.7,70.7,101.4,73.1,92.3,77.4z M174.8,93.9
			c0.2-12.3,0.5-35.9,0.3-39.6c-1.5-24-22.3-44.4-47.2-46.4c-1.6-0.1-3.1-0.2-4.6-0.2c-13.6-0.1-25.6,4.1-35.6,12.6
			c-10,8.4-16.5,20.9-17.5,33.3C69.9,57,70,82.4,70,94.3c-10.1,11.5-16.1,26.4-16.1,42.6c0,36.6,30.8,66.2,68.7,66.2
			c38,0,68.7-29.6,68.7-66.2C191.3,120.5,185.1,105.5,174.8,93.9z"/>
	</g>
	<g>
		<defs>
			<path id="SVGID_2_" d="M92.3,77.4c0.4-13.8,1.5-28.9,4.3-33.6c5.6-9.1,14.7-14.4,25.1-14.6c0.4,0,0.7,0,1.1,0
				c10.6,0.1,19.8,5.3,25.4,14.3c3.1,5,4.2,19.8,4.5,33.9c-9.1-4.3-19.4-6.7-30.2-6.7C111.7,70.7,101.4,73.1,92.3,77.4z M174.8,93.9
				c0.2-12.3,0.5-35.9,0.3-39.6c-1.5-24-22.3-44.4-47.2-46.4c-1.6-0.1-3.1-0.2-4.6-0.2c-13.6-0.1-25.6,4.1-35.6,12.6
				c-10,8.4-16.5,20.9-17.5,33.3C69.9,57,70,82.4,70,94.3c-10.1,11.5-16.1,26.4-16.1,42.6c0,36.6,30.8,66.2,68.7,66.2
				c38,0,68.7-29.6,68.7-66.2C191.3,120.5,185.1,105.5,174.8,93.9z"/>
		</defs>
		<clipPath id="SVGID_3_">
			<use xlink:href="#SVGID_2_"  overflow="visible"/>
		</clipPath>
		<g clip-path="url(#SVGID_3_)" enable-background="new    ">
			<path fill="#FFFFFF" d="M78.9,124.3v6.8h21.6V145H78.9v68.3H61.6V145H51.2v-13.9h10.4v-6.3c0-8.7,2.6-15.5,7.8-20.6
				c5.2-5.1,11.5-7.6,18.9-7.6c7.4,0,14.1,2.7,20.2,8.2l-7.1,12.2c-3.4-3.6-7-5.4-10.7-5.4s-6.6,1.2-8.7,3.5
				C79.9,117.2,78.9,120.4,78.9,124.3z"/>
		</g>
	</g>
</g>
<path fill="#355184" d="M133.5,132c1.6-2.2,2.5-4.9,2.5-7.8c0-7.4-6-13.4-13.4-13.4s-13.4,6-13.4,13.4c0,2.9,0.9,5.6,2.5,7.8
	c-4.9,3.4-8,9.1-8,15.5c0,10.5,8.5,18.9,18.9,18.9c10.5,0,18.9-8.5,18.9-18.9C141.5,141.1,138.3,135.4,133.5,132z"/>
</svg>
