<?xml version="1.0" encoding="utf-8"?>
<!-- Generator: Adobe Illustrator 18.0.0, SVG Export Plug-In . SVG Version: 6.00 Build 0)  -->
<!DOCTYPE svg PUBLIC "-//W3C//DTD SVG 1.1//EN" "http://www.w3.org/Graphics/SVG/1.1/DTD/svg11.dtd">
<svg version="1.1" id="Layer_1" xmlns="http://www.w3.org/2000/svg" xmlns:xlink="http://www.w3.org/1999/xlink" x="0px" y="0px"
	 width="200px" height="200px" viewBox="0 0 200 200" enable-background="new 0 0 200 200" xml:space="preserve">
<g>
	<path fill="#FFFFFF" d="M70,72.4c0.4-13.6,1.4-28.6,4.3-33.3c5.5-9,14.6-14.2,24.9-14.5c0.4,0,0.7,0,1.1,0
		c10.5,0.1,19.6,5.3,25.1,14.2c3.1,5,4.2,19.6,4.5,33.5c-9-4.3-19.2-6.7-29.9-6.7C89.2,65.7,79.1,68.1,70,72.4z M151.8,88.7
		c0.2-12.2,0.5-35.5,0.3-39.2c-1.5-23.8-22-44-46.7-46c-1.5-0.1-3.1-0.2-4.6-0.2C87.3,3.1,75.4,7.3,65.5,15.7
		c-9.9,8.4-16.4,20.7-17.4,32.9c-0.3,3.5-0.2,28.6-0.2,40.3c-10,11.4-16,26.1-16,42.2c0,36.2,30.5,65.5,68,65.5
		c37.6,0,68-29.3,68-65.5C168,115,161.9,100.1,151.8,88.7z"/>
	<path fill-rule="evenodd" clip-rule="evenodd" fill="#6ABC45" d="M110.8,126.4c1.6-2.2,2.5-4.8,2.5-7.7c0-7.3-5.9-13.3-13.3-13.3
		s-13.3,5.9-13.3,13.3c0,2.9,0.9,5.5,2.5,7.7c-4.8,3.4-8,9-8,15.3c0,10.4,8.4,18.8,18.8,18.8c10.4,0,18.8-8.4,18.8-18.8
		C118.8,135.4,115.6,129.8,110.8,126.4z"/>
</g>
<path fill="#6ABC45" d="M122,55c3.3-3.8,37.2-4,41,0c6.1,6.5-11.1,33.8-11.1,33.8l-0.9-1c-0.3-0.3-0.5-0.6-0.8-0.8l-7.1-6.1
	c-2.4-2.2-5.1-4.1-8-5.7l-5.1-2.9C129.9,72.3,118.9,58.6,122,55z"/>
</svg>
