<?xml version="1.0" encoding="utf-8"?>
<!-- Generator: Adobe Illustrator 18.0.0, SVG Export Plug-In . SVG Version: 6.00 Build 0)  -->
<!DOCTYPE svg PUBLIC "-//W3C//DTD SVG 1.1//EN" "http://www.w3.org/Graphics/SVG/1.1/DTD/svg11.dtd">
<svg version="1.1" id="Layer_1" xmlns="http://www.w3.org/2000/svg" xmlns:xlink="http://www.w3.org/1999/xlink" x="0px" y="0px"
	 width="237.6px" height="210.7px" viewBox="0 0 237.6 210.7" enable-background="new 0 0 237.6 210.7" xml:space="preserve">
<rect x="-49.5" y="-34.1" display="none" fill="#6ABC45" width="299.1" height="265.8"/>
<path fill="#00ACED" d="M92.3,77.4c0.4-13.8,1.5-28.9,4.3-33.6c5.6-9.1,14.7-14.4,25.1-14.6c0.4,0,0.7,0,1.1,0
	c10.6,0.1,19.8,5.3,25.4,14.3c3.1,5,4.2,19.8,4.5,33.9c-9.1-4.3-19.4-6.7-30.2-6.7C111.7,70.7,101.4,73.1,92.3,77.4z M174.8,93.9
	c0.2-12.3,0.5-35.9,0.3-39.6c-1.5-24-22.3-44.4-47.2-46.4c-1.6-0.1-3.1-0.2-4.6-0.2c-13.6-0.1-25.6,4.1-35.6,12.6
	c-10,8.4-16.5,20.9-17.5,33.3C69.9,57,70,82.4,70,94.3c-10.1,11.5-16.1,26.4-16.1,42.6c0,36.6,30.8,66.2,68.7,66.2
	c38,0,68.7-29.6,68.7-66.2C191.3,120.5,185.1,105.5,174.8,93.9z"/>
<path fill-rule="evenodd" clip-rule="evenodd" fill="#5E9E3C" d="M133.5,132c1.6-2.2,2.5-4.9,2.5-7.8c0-7.4-6-13.4-13.4-13.4
	s-13.4,6-13.4,13.4c0,2.9,0.9,5.6,2.5,7.8c-4.9,3.4-8,9.1-8,15.5c0,10.5,8.5,18.9,18.9,18.9c10.5,0,18.9-8.5,18.9-18.9
	C141.5,141.1,138.3,135.4,133.5,132z"/>
<g>
	<defs>
		<ellipse id="SVGID_1_" cx="122.4" cy="136.8" rx="68.7" ry="66.1"/>
	</defs>
	<use xlink:href="#SVGID_1_"  overflow="visible" fill="#00ACED"/>
	<clipPath id="SVGID_2_">
		<use xlink:href="#SVGID_1_"  overflow="visible"/>
	</clipPath>
	<g clip-path="url(#SVGID_2_)">
		<path fill="#00ACED" d="M92.3,77.4c0.4-13.8,1.5-28.9,4.3-33.6c5.6-9.1,14.7-14.4,25.1-14.6c0.4,0,0.7,0,1.1,0
			c10.6,0.1,19.8,5.3,25.4,14.3c3.1,5,4.2,19.8,4.5,33.9c-9.1-4.3-19.4-6.7-30.2-6.7C111.7,70.7,101.4,73.1,92.3,77.4z M174.8,93.9
			c0.2-12.3,0.5-35.9,0.3-39.6c-1.5-24-22.3-44.4-47.2-46.4c-1.6-0.1-3.1-0.2-4.6-0.2c-13.6-0.1-25.6,4.1-35.6,12.6
			c-10,8.4-16.5,20.9-17.5,33.3C69.9,57,70,82.4,70,94.3c-10.1,11.5-16.1,26.4-16.1,42.6c0,36.6,30.8,66.2,68.7,66.2
			c38,0,68.7-29.6,68.7-66.2C191.3,120.5,185.1,105.5,174.8,93.9z"/>
		<path fill-rule="evenodd" clip-rule="evenodd" fill="#07A3D3" d="M133.5,132c1.6-2.2,2.5-4.9,2.5-7.8c0-7.4-6-13.4-13.4-13.4
			s-13.4,6-13.4,13.4c0,2.9,0.9,5.6,2.5,7.8c-4.9,3.4-8,9.1-8,15.5c0,10.5,8.5,18.9,18.9,18.9c10.5,0,18.9-8.5,18.9-18.9
			C141.5,141.1,138.3,135.4,133.5,132z"/>
	</g>
</g>
<g>
	<defs>
		<path id="SVGID_3_" d="M174.8,93.9c0.2-12.3,0.5-35.9,0.3-39.6c-1.5-24-22.3-44.4-47.2-46.4c-1.6-0.1-3.1-0.2-4.6-0.2
			c-13.6-0.1-25.6,4.1-35.6,12.6c-10,8.4-16.5,20.9-17.5,33.3C69.9,57,70,82.4,70,94.3c-10.1,11.5-16.1,26.4-16.1,42.6
			c0,36.6,30.8,66.2,68.7,66.2c38,0,68.7-29.6,68.7-66.2C191.3,120.5,185.1,105.5,174.8,93.9z"/>
	</defs>
	<clipPath id="SVGID_4_">
		<use xlink:href="#SVGID_3_"  overflow="visible"/>
	</clipPath>
	<g clip-path="url(#SVGID_4_)">
		<path fill="#FFFFFF" d="M83.5,142.4v41.7c0,3.9,1,7,3.1,9.3c2.1,2.3,4.9,3.5,8.7,3.5c3.7,0,7.3-1.8,10.7-5.4l7.1,12.2
			c-6.1,5.5-12.8,8.2-20.2,8.2c-7.4,0-13.7-2.5-18.9-7.6c-5.2-5.1-7.8-12-7.8-20.6v-41.3l-13.9,0v-13.9l13.9,0v-25.8h17.3v25.8h21.6
			v13.9H83.5z"/>
	</g>
</g>
</svg>
